<svg width="90" height="18" viewBox="0 0 90 18" fill="none" xmlns="http://www.w3.org/2000/svg">
<path d="M77.1084 4.89929C77.8246 4.83845 79.9439 4.82537 80.6628 4.88598C81.5048 5.85224 82.2953 7.19485 83.1351 8.19031C83.4405 8.1535 85.2597 5.24128 85.6064 4.98985C85.8501 4.81304 88.8287 4.83618 89.0839 4.90471C89.0532 5.38146 85.5384 9.77936 85.1672 10.5318C85.1272 10.6135 85.1001 10.6839 85.077 10.777C85.1601 11.1744 88.9683 16.2333 89.564 17.0923C89.6338 17.2132 89.6699 17.226 89.6578 17.3432C89.4009 17.3935 86.3738 17.4011 86.1764 17.3389L86.1035 17.2694C85.0552 15.9632 84.1638 14.5481 83.1262 13.2703C82.4864 14.2931 81.5679 15.3908 80.8744 16.3989C80.6561 16.7168 80.3809 17.0046 80.2138 17.3387C79.8768 17.3958 76.859 17.4324 76.7336 17.3118L76.7381 17.2051C76.9146 17.0302 77.5419 16.0906 77.7197 15.8445L80.1266 12.5021C80.4112 12.1054 81.0962 11.1006 81.3697 10.7896C79.9248 8.84408 78.5044 6.88049 77.1084 4.89929Z" fill="white"/>
<path d="M40.1133 6.13139C40.402 5.93412 40.6938 5.70872 40.9903 5.48808C43.3554 3.72816 47.3341 4.49948 47.8969 7.68765C48.1397 9.06453 47.9694 10.71 48.0258 12.115C48.0121 13.802 48.0685 15.6051 48.0067 17.2739L47.9489 17.3666C47.6346 17.3888 45.3362 17.4073 45.0863 17.3565C44.9645 17.3095 44.9952 17.2842 44.9934 17.0898L44.9916 12.5547C44.9921 11.4019 45.1019 9.1971 44.475 8.23765C44.199 7.81355 43.764 7.51833 43.2682 7.41833C41.7811 7.11234 40.3918 8.43937 40.2427 9.8628C40.2089 10.1857 40.1757 10.5925 40.1134 10.9027C40.1137 11.5404 40.139 17.2551 40.0808 17.3415L39.9779 17.3612C39.7473 17.4105 37.332 17.4188 36.9643 17.3297C36.9526 17.3269 36.926 17.2373 36.9177 17.2134C36.9606 16.7984 36.9436 16.089 36.9436 15.6515L36.9408 12.9478L36.9354 4.89007C37.6003 4.81531 39.3732 4.83925 40.1002 4.85825C40.1033 5.26045 40.0953 5.73506 40.1133 6.13139Z" fill="white"/>
<path d="M39.9706 17.169L39.9681 12.9703C39.9681 12.5852 39.9459 11.2363 40.0172 10.9552L40.1136 10.9026C40.1139 11.5404 40.1392 17.2551 40.0811 17.3414L39.9782 17.3612L39.9706 17.169Z" fill="white"/>
<path d="M6.52679 0.511378C6.55987 0.483315 6.60303 0.446637 6.65638 0.401344C7.56167 0.284381 8.60268 0.347654 9.52264 0.359374C9.59684 0.360319 9.6577 0.382815 9.70144 0.40538L9.77827 0.514982C10.3478 2.14401 11.1184 4.02227 11.7511 5.64681L14.4067 12.5605C14.7442 13.4353 15.0816 14.2976 15.4066 15.1794C15.6304 15.7865 15.9857 16.5282 16.1631 17.1516L16.1693 17.3312C16.0335 17.4395 13.4608 17.3709 13.1095 17.3697C13.0132 17.3693 12.9376 17.324 12.8658 17.2597C12.8187 16.9189 12.3838 15.9037 12.2376 15.5382C12.0194 14.9821 11.8073 14.4236 11.6014 13.8628C10.0694 13.9529 8.32576 13.8644 6.78335 13.9073C6.18665 13.9239 5.2125 13.8287 4.66869 13.9391C4.49949 14.1708 4.4569 14.4204 4.34029 14.662C3.96364 15.4424 3.67773 16.4847 3.3012 17.2306C3.28218 17.3244 3.30079 17.2944 3.22987 17.3535C2.94122 17.4021 0.197635 17.4183 0.0355481 17.3295L0 17.1675C0.151857 16.9372 0.411648 16.145 0.532657 15.8258L1.52731 13.2304C2.39633 10.9109 3.35113 8.56072 4.24159 6.24144L5.40251 3.24324C5.57665 2.78197 6.26765 0.746359 6.52679 0.511378ZM5.80005 10.7403C6.38124 10.8076 7.42607 10.7707 8.04283 10.7671C8.61317 10.7718 9.95072 10.8225 10.4156 10.7635C10.2543 10.3629 8.19892 4.95832 8.21461 4.97541C7.87078 5.25782 7.65663 6.0535 7.49143 6.49038C7.07913 7.61026 6.64242 8.72097 6.18162 9.82176C6.08328 10.0552 5.90319 10.5548 5.80005 10.7403Z" fill="white"/>
<path d="M6.52686 0.511378C6.55993 0.483315 6.6031 0.446637 6.65645 0.401344C7.56173 0.284381 8.60275 0.347654 9.5227 0.359374C9.5969 0.360319 9.65776 0.382815 9.70151 0.40538L9.77833 0.514982C9.46478 0.562278 6.83259 0.566119 6.52686 0.511378Z" fill="white"/>
<path d="M59.3612 0H62.4763L62.4696 17.3655C61.7121 17.3907 60.1436 17.4078 59.3923 17.3613C59.3456 16.9447 59.3527 16.4893 59.3496 16.0677C58.7143 16.6277 58.1626 17.0206 57.3601 17.3484C57.0881 17.4597 56.2447 17.5996 56.1011 17.7116H54.7047C54.3815 17.5945 54.0525 17.5307 53.724 17.4314C52.99 17.2057 52.3151 16.8188 51.7492 16.2988C50.2612 14.9055 49.5699 13.4059 49.5254 11.3514C49.4845 9.47788 49.8998 7.91174 51.1655 6.47826C52.2151 5.28896 53.3159 4.65121 54.9341 4.57507C56.8511 4.48491 57.9643 4.93611 59.3661 6.25486C59.4261 5.55383 59.4007 4.59932 59.395 3.88587L59.3612 0ZM56.7369 14.8102C58.8775 14.3757 59.8426 12.2193 59.4305 10.1985C59.2349 9.26241 58.6747 8.443 57.8736 7.92184C57.2646 7.52151 56.2612 7.34991 55.5641 7.44786C53.4421 7.70223 52.4174 9.72531 52.6583 11.7163C52.7815 12.7127 53.2941 13.6194 54.0845 14.2378C54.7998 14.7983 55.6872 14.9485 56.5719 14.8364C56.627 14.8295 56.6822 14.8208 56.7369 14.8102Z" fill="white"/>
<path d="M26.1702 0H29.0343H29.245C29.2211 5.7487 29.3193 11.6328 29.227 17.3624C28.8274 17.3709 26.4546 17.4198 26.2187 17.3395L26.1859 17.2272C26.1358 16.9368 26.1483 16.3855 26.1463 16.0727C25.3981 16.5225 24.8428 17.2244 23.8946 17.4186C23.731 17.4522 22.9917 17.6368 22.904 17.7116H21.4458C20.1414 17.2954 19.3866 17.1675 18.3253 16.1372C16.6348 14.4961 16.0411 12.2529 16.3459 9.95062C16.9946 5.05003 22.4322 2.64878 26.1468 6.28935C26.2202 4.22811 26.1382 2.07395 26.1702 0ZM23.4263 14.8268C24.4744 14.5525 25.1834 14.1378 25.7552 13.1581C26.2975 12.2077 26.4485 11.0832 26.1762 10.0232C25.7112 8.25307 24.1122 7.21992 22.3114 7.44501C18.6726 8.0064 18.3264 13.298 21.6172 14.6737C22.135 14.8902 22.8714 14.9129 23.4263 14.8268Z" fill="white"/>
<path d="M69.7364 17.7116C69.3172 17.5243 68.7739 17.5222 68.3285 17.3614C64.5834 16.0093 63.1532 12.0031 64.55 8.40842C65.8913 4.95729 70.1819 3.62861 73.4433 5.10272C74.9735 5.79658 76.169 7.06603 76.7705 8.636C77.2173 9.82237 77.1946 10.7455 77.1786 11.9705L70.6532 11.9632C69.5062 11.9607 68.1871 11.9239 67.0592 11.9816C67.1801 12.8861 67.6514 13.7068 68.3712 14.2665C69.6809 15.2637 71.8744 15.1877 73.1779 14.1851C73.3735 14.0349 73.5442 13.8662 73.7541 13.7352C74.1555 13.9256 76.0685 14.8016 76.1974 14.9912C76.2512 15.4922 74.7383 16.6226 74.3035 16.8534C73.7185 17.1653 73.0903 17.3882 72.4395 17.5146C72.2558 17.5503 71.8184 17.5978 71.7161 17.7116H69.7364ZM70.9648 9.57004C72.078 9.59626 72.9881 9.62839 74.0959 9.55429C73.4686 7.90854 72.2487 7.12923 70.506 7.18516C69.0376 7.2431 67.7714 8.01218 67.2713 9.46449C67.2691 9.47089 67.278 9.50894 67.2802 9.51682C67.6963 9.64992 70.2931 9.53858 70.9648 9.57004Z" fill="white"/>
<path d="M34.6114 0H34.7443L34.7342 11.7707C34.7344 12.3368 34.7875 17.1746 34.6572 17.367L34.6119 17.3601C34.3366 17.3976 31.7479 17.404 31.5551 17.3259L31.5068 17.1903C31.5789 16.7659 31.5343 14.5611 31.5338 14.0198L31.5347 7.9477C31.5345 6.92052 31.4942 5.54186 31.5553 4.55802C31.8294 4.36218 32.3093 4.14276 32.6201 3.97838C33.2587 3.64067 33.9134 3.31558 34.5454 2.96523L34.588 2.96733L34.6164 2.92435C34.6436 2.74908 34.6245 2.15945 34.6228 1.94213L34.6114 0Z" fill="white"/>
<path d="M34.6119 0H34.7448L34.7347 11.7707C34.7349 12.3368 34.788 17.1746 34.6577 17.367C34.5643 16.1658 34.617 14.3187 34.6166 13.0612L34.6173 5.31855C34.6179 4.70554 34.6414 3.72898 34.6174 3.08221C34.5888 3.0355 34.565 2.9965 34.5459 2.96523L34.5885 2.96733L34.6169 2.92435C34.6441 2.74908 34.625 2.15945 34.6233 1.94213L34.6119 0Z" fill="white"/>
<path d="M31.5343 0H34.6111L34.6225 1.94213C34.6242 2.15945 34.6432 2.74908 34.6161 2.92435C33.5862 2.91363 32.5858 2.88869 31.5485 2.88739C31.5038 2.0167 31.5344 0.889763 31.5343 0Z" fill="white"/>
</svg>
