<svg width="74" height="21" viewBox="0 0 74 21" fill="none" xmlns="http://www.w3.org/2000/svg">
<path d="M53.6823 11.1245C54.9904 10.8729 56.2543 11.731 56.5026 13.0392C56.7509 14.3474 55.8891 15.6085 54.5799 15.8533C53.2754 16.0973 52.0194 15.2398 51.7718 13.9363C51.5246 12.6328 52.3792 11.3751 53.6823 11.1245Z" fill="#E51D0E"/>
<path d="M7.14484 20.3354C6.43116 20.1089 5.67038 19.8565 5.00779 19.4973C0.552181 17.082 -0.976067 11.6015 0.607422 6.97381C2.32924 1.94182 7.6336 -0.475844 12.6205 1.08063C14.2922 1.60237 15.8187 2.57969 16.9688 3.9143C16.983 3.93127 17.0025 4.00095 17.0076 4.02444C16.9391 4.19856 15.0511 6.07049 14.8608 6.21133C13.7193 5.10042 12.8865 4.38119 11.2974 3.97628C10.564 3.78942 10.2351 3.72081 9.45556 3.73182C7.80358 3.75994 6.22903 4.43685 5.0723 5.61615C2.51027 8.25512 2.53742 13.092 5.14815 15.6889C7.5204 18.0485 11.4871 18.0126 13.9558 15.8449C14.2941 15.5478 14.5745 15.2434 14.8974 14.9432L16.3447 16.4243C16.5185 16.5993 16.9715 17.0224 17.0988 17.1941C15.4377 18.9508 14.3411 19.6259 12.0573 20.3354H7.14484Z" fill="#222222"/>
<path d="M61.2972 0H64.4921L64.4986 7.47424C64.8287 7.29391 65.1178 7.07284 65.4633 6.91719C67.9414 5.80173 71.2059 6.43797 72.5897 8.9245C73.1322 9.89891 73.1838 10.6371 73.3926 11.6762V20.3353H70.1863C70.1141 18.3587 70.2239 16.3355 70.1798 14.3479C70.1393 12.5209 70.6021 9.5734 67.908 9.528C66.314 9.50113 64.8674 10.3942 64.5876 12.0372C64.4286 12.9705 64.4968 14.1328 64.4968 15.0969L64.4972 20.3353H61.2915L61.2972 0Z" fill="#222222"/>
<path d="M25.0271 6.68376C26.0849 6.66672 27.163 6.6967 28.2138 6.66998C28.2385 8.77431 28.1917 10.8952 28.2202 12.9921C28.2376 14.2727 28.0277 16.0063 29.0192 16.9569C30.0004 17.8977 32.1514 17.4675 33.0339 16.5264C33.4303 16.1038 33.7093 15.5424 33.8139 14.9718C33.9819 13.9721 33.9177 12.7408 33.9162 11.7097L33.9176 6.682L37.0828 6.67436L37.085 20.3353H33.922C33.9228 20.0608 33.9114 19.7863 33.8879 19.5128C33.4781 19.8617 32.8309 20.1355 32.334 20.3353H28.5787C27.1374 19.7742 26.2273 19.0293 25.5841 17.6015C24.8616 15.9977 25.0259 14.2557 25.0264 12.5402L25.0271 6.68376Z" fill="#222222"/>
<path d="M52.1724 20.3354C50.1866 19.6436 48.6148 18.5654 47.7527 16.6047C45.0231 10.3969 50.5924 4.64448 56.9011 6.85256C57.8655 7.19008 58.9999 7.92319 59.6762 8.68894L59.6927 8.75181C59.4592 9.0619 58.8428 9.61661 58.5375 9.93344C58.3613 10.1164 57.6868 10.8088 57.5106 10.9453C56.0235 9.7846 55.1858 9.27307 53.2104 9.65764C49.9523 10.2919 49.2473 14.6666 51.6945 16.6143C53.1637 17.784 55.4283 17.724 56.8588 16.5648C57.0758 16.3888 57.4328 15.9023 57.662 16.1757C57.9103 16.4439 59.6572 18.0353 59.7092 18.2178C59.6393 18.488 58.4592 19.3731 58.1665 19.5369C57.6204 19.8424 56.9628 20.1544 56.3647 20.3354H52.1724Z" fill="#222222"/>
<path d="M40.8218 2.04608C41.7894 2.09621 43.0369 2.05236 44.0289 2.04678C44.058 3.50613 44.0246 4.97745 44.0232 6.43754C44.0228 6.51899 44.0232 6.58839 44.0307 6.66995C44.8957 6.67884 45.7611 6.67995 46.6264 6.67328C46.6286 7.63779 46.6501 8.68439 46.6257 9.64231C45.7988 9.64277 44.825 9.59536 44.0332 9.61914L44.0325 16.73C44.0321 17.8412 44.0777 19.2544 44.0235 20.3353H40.8233L40.8172 9.61397C40.0609 9.61178 39.3178 9.64413 38.5587 9.64137C38.5583 8.68938 38.5831 7.62524 38.5565 6.68296L40.8143 6.66926C40.8329 5.13031 40.8129 3.58577 40.8218 2.04608Z" fill="#222222"/>
<path d="M19.1305 0H22.2997C22.3334 1.40906 22.322 2.85533 22.3113 4.266C22.2706 9.61813 22.3636 14.9847 22.3062 20.3353H19.1361C19.0558 19.6797 19.1474 18.2823 19.1358 17.5644C19.1135 16.1794 19.1182 14.7722 19.118 13.3864L19.1335 3.10937C19.1408 2.06822 19.1011 1.05079 19.1305 0Z" fill="#222222"/>
</svg>
