<svg width="42" height="21" viewBox="0 0 42 21" fill="none" xmlns="http://www.w3.org/2000/svg">
<path d="M11.4207 7.51478C13.0082 7.44558 14.1163 7.69681 15.4436 8.61093C15.4488 8.24238 15.4512 7.87381 15.4509 7.50524C15.9118 7.52235 16.4563 7.50953 16.923 7.50947L19.5225 7.50594C19.5421 8.14838 19.531 8.83513 19.5311 9.47979L19.5315 12.8443C19.5317 15.446 19.5557 18.0934 19.5241 20.6916C18.5844 20.6363 17.5806 20.7015 16.6344 20.6769C16.269 20.6672 15.8125 20.6638 15.4502 20.6894C15.4524 20.3095 15.4454 19.922 15.4423 19.5415L15.2364 19.6709C14.5471 20.1431 13.548 20.5099 12.7203 20.6123C11.1497 20.796 9.57039 20.3493 8.32869 19.3701C6.92909 18.2732 6.07478 16.662 5.86217 14.9051C5.63834 13.0888 6.14471 11.258 7.26998 9.81499C8.30752 8.497 9.76062 7.71231 11.4207 7.51478ZM13.1323 16.6792C14.5875 16.4946 15.6146 15.1611 15.4217 13.7069C15.2289 12.2527 13.8897 11.233 12.4368 11.4341C10.9954 11.6336 9.98578 12.9599 10.1771 14.4025C10.3684 15.8451 11.6888 16.8623 13.1323 16.6792Z" fill="white"/>
<path d="M0.628303 7.50974C1.97322 7.50991 3.34925 7.52511 4.69166 7.50488L4.69341 16.0346L4.69334 19.0127C4.69332 19.2313 4.71188 20.6116 4.66539 20.6898C4.43078 20.6594 3.43928 20.6724 3.1584 20.6767C2.33585 20.6894 1.43406 20.6541 0.619757 20.6855L0.61948 12.0659L0.619534 9.10778C0.619478 8.62534 0.598486 7.97787 0.628303 7.50974Z" fill="white"/>
<path d="M2.50494 0.355675C3.96565 0.26875 5.22286 1.3768 5.32023 2.837C5.41762 4.29717 4.31872 5.56241 2.85941 5.67027C1.38522 5.77924 0.104391 4.66658 0.00600782 3.1915C-0.0923749 1.71643 1.02935 0.443483 2.50494 0.355675Z" fill="white"/>
<path d="M20.8532 0H24.9247C24.8968 0.579472 24.9202 1.36816 24.9202 1.95972L24.921 6.31767C24.921 7.03118 24.9452 7.9104 24.9153 8.61363C25.712 8.09429 26.3849 7.75388 27.3334 7.58789C28.8914 7.31523 30.4275 7.64946 31.73 8.53416C33.1494 9.51797 34.1246 11.021 34.4445 12.7182C35.508 18.2763 29.857 22.8764 24.9161 19.5208C24.9366 19.8309 24.9188 20.3677 24.9208 20.6941C24.6435 20.6584 23.6956 20.6723 23.3784 20.6767C22.5568 20.6877 21.6635 20.6555 20.8491 20.6855C20.8649 20.126 20.8491 19.4742 20.8491 18.9073L20.8489 15.3293L20.8499 5.28516C20.8499 3.5352 20.8263 1.74435 20.8532 0ZM27.9197 16.678C29.3713 16.4877 30.3924 15.1546 30.1982 13.7034C30.0038 12.2522 28.6679 11.2347 27.2173 11.4331C25.7727 11.6307 24.7602 12.9602 24.9536 14.4057C25.1472 15.8512 26.4737 16.8675 27.9197 16.678Z" fill="white"/>
<path d="M38.5042 20.7975C38.2669 20.7298 38.0341 20.6864 37.8003 20.6012C36.4652 20.115 35.7835 18.7092 36.1695 17.357C36.3637 16.6876 36.8143 16.122 37.4234 15.7833C39.1893 14.8116 41.4106 16.0594 41.3741 18.1243C41.3515 19.412 40.5579 20.3979 39.3021 20.712C39.2254 20.7313 39.0679 20.7668 38.9986 20.7975H38.5042Z" fill="white"/>
</svg>
