<svg width="62" height="23" viewBox="0 0 62 23" fill="none" xmlns="http://www.w3.org/2000/svg">
<path d="M21.2541 18.2572C21.5837 18.2218 21.9229 18.2618 22.1697 18.4965C22.2185 18.5429 22.294 18.6205 22.3553 18.6331L22.3614 18.3027C22.5252 18.2995 22.6957 18.3019 22.8601 18.3017C22.84 18.7897 22.8341 19.7164 22.8635 20.2085C22.9415 21.5152 22.5848 22.4048 21.0906 22.1535C20.8298 22.1096 20.2398 21.6823 20.3216 21.3681L20.4223 21.3156C20.5153 21.289 20.633 21.2364 20.7247 21.1986C20.8825 21.5425 21.1286 21.7954 21.5306 21.8062C21.7409 21.8132 21.9451 21.7342 22.0965 21.5873C22.3721 21.3164 22.3634 20.9886 22.3696 20.6359C22.2186 20.8231 22.0397 20.9875 21.8054 21.0477C20.5185 21.3786 19.8947 19.8643 20.4358 18.8672C20.6294 18.5104 20.8845 18.3625 21.2541 18.2572ZM21.5853 20.6723C22.6845 20.5009 22.6379 18.7456 21.5415 18.682C20.448 18.8064 20.4502 20.5554 21.5853 20.6723Z" fill="black" fill-opacity="0.988235"/>
<path d="M38.0387 17.2383L38.5104 17.25C38.4629 18.5102 38.5513 19.8786 38.4959 21.1599L38.0539 21.1388C38.0415 21.0636 38.0318 20.8584 38.0254 20.7735C37.601 21.3 36.9795 21.2897 36.4234 20.9861C36.0123 20.6304 35.8727 20.1245 35.9042 19.5947C35.9747 18.4111 37.179 17.7024 38.0394 18.7065L38.0387 17.2383ZM36.7188 18.8288C36.2926 19.4817 36.2929 19.962 36.7022 20.6346C36.9513 20.7711 37.0303 20.7989 37.3131 20.7973C37.9891 20.6517 38.1456 19.995 38.0233 19.3777C37.9331 18.9227 37.6255 18.7077 37.1684 18.6812C36.9783 18.7058 36.8884 18.73 36.7188 18.8288Z" fill="black" fill-opacity="0.988235"/>
<path d="M31.8721 17.2447C32.114 17.2341 32.338 17.2409 32.5793 17.247C32.5544 18.5406 32.5974 19.8531 32.569 21.154L32.0861 21.1452L32.0882 18.4505L32.0876 17.9327C31.7737 18.6084 31.4873 19.5563 31.1973 20.27C31.091 20.5323 31.0023 20.9406 30.8749 21.1646L30.4613 21.1447C30.3321 20.8725 30.2258 20.4922 30.1081 20.2023C29.8176 19.4864 29.5506 18.6307 29.2479 17.932C29.2518 19.0057 29.248 20.0796 29.2366 21.1533C29.0873 21.1467 28.9378 21.146 28.7884 21.1513L28.7881 17.2447C28.9906 17.2376 29.2775 17.2108 29.4591 17.2805C29.5737 17.3792 30.5288 20.0614 30.7047 20.4614C31.0574 19.4877 31.4446 18.1805 31.8721 17.2447Z" fill="black" fill-opacity="0.988235"/>
<path d="M45.3176 17.2456C45.5413 17.2376 45.6982 17.2393 45.9216 17.2526C45.9594 17.344 45.9845 17.4547 46.0178 17.5492C46.445 18.7529 46.9294 19.9547 47.3941 21.1441C47.2136 21.1486 47.0247 21.1383 46.844 21.1314C46.7144 20.8007 46.5906 20.4611 46.4659 20.1281L45.8111 20.1216C45.4439 20.1203 45.0691 20.1282 44.701 20.1321C44.6483 20.2575 44.5777 20.4277 44.5408 20.5558C44.3749 21.1267 44.3486 21.1161 43.8115 21.1598C43.863 21.0345 43.9335 20.8811 43.9729 20.7544C44.2844 19.757 44.6949 18.8041 45.0654 17.8286C45.1363 17.6421 45.2123 17.4127 45.3176 17.2456ZM44.8768 19.6524L45.5765 19.6487L46.2815 19.652C46.1529 19.3492 45.72 17.9863 45.5998 17.844C45.4133 18.198 45.0555 19.2171 44.8768 19.6524Z" fill="black" fill-opacity="0.988235"/>
<path d="M51.9789 18.2573C53.0939 18.1291 53.3685 18.7038 53.304 19.6829C53.2852 19.9679 53.3009 20.3282 53.3091 20.6164C53.3137 20.7846 53.561 20.7413 53.591 20.9957C53.5713 21.0451 53.5465 21.1512 53.4895 21.1531C53.2567 21.1606 52.9949 21.1356 52.8556 20.9354L52.8487 20.9253C52.7339 20.9269 52.1684 21.2797 51.7652 21.1792C51.5033 21.1138 51.3232 21.0651 51.1382 20.8277C51.0662 20.6802 51.0656 20.6041 51.0435 20.4638C50.87 19.3694 52.5995 19.4711 52.7911 19.2373C52.8432 18.5869 52.136 18.5886 51.7276 18.8391C51.6789 18.9312 51.6244 19.0806 51.5841 19.1809L51.1709 19.0647L51.1412 19.0068C51.1258 18.6857 51.6883 18.3328 51.9789 18.2573ZM51.7506 20.7851C51.9241 20.8174 51.9937 20.8243 52.1675 20.8096C52.6728 20.7668 52.9519 20.1762 52.7745 19.7244C52.7218 19.698 52.7118 19.7017 52.6534 19.7125C52.288 19.786 51.8006 19.835 51.5614 20.1641C51.4143 20.3668 51.576 20.6542 51.7506 20.7851Z" fill="black" fill-opacity="0.988235"/>
<path d="M5.24069 18.2582C5.44567 18.2362 5.68437 18.2314 5.89396 18.2824C6.83646 18.5115 6.49522 19.6721 6.55252 20.3848C6.5564 20.4329 6.54789 20.675 6.56415 20.6997C6.64692 20.8256 6.75021 20.7459 6.85293 20.9171C6.85523 21.0163 6.83903 21.0398 6.79359 21.1297C6.44959 21.3067 6.19896 20.9239 6.11014 20.9516C5.51394 21.1378 4.90184 21.456 4.38789 20.8063C3.91423 19.5848 5.26179 19.4447 6.08368 19.2877C6.00779 18.7312 5.65171 18.5065 5.10076 18.7731C4.93166 18.855 4.91652 19.0516 4.76924 19.1429C4.59817 19.1882 4.50232 19.1379 4.43393 18.9791C4.43484 18.6078 4.93081 18.3409 5.24069 18.2582ZM5.03053 20.7856C5.5245 20.8836 5.93903 20.7505 6.06679 20.1898C6.09352 20.0724 6.09361 19.8259 6.03718 19.7215C5.9819 19.7078 5.97318 19.7024 5.91842 19.7118C5.59243 19.7782 5.00922 19.8402 4.81622 20.1265C4.64881 20.3749 4.7729 20.6636 5.03053 20.7856Z" fill="black" fill-opacity="0.988235"/>
<path d="M41.1121 18.2569C42.8967 18.1085 42.2416 19.536 42.3963 20.6482C42.4129 20.7667 42.6615 20.7905 42.7245 20.9328C42.7387 21.0141 42.6821 21.142 42.5913 21.1603C42.3379 21.2115 42.1711 21.0707 41.9613 20.9456C41.7775 20.961 41.6682 21.0585 41.4999 21.1228C41.1254 21.266 40.7676 21.167 40.4188 21.0211C40.3592 20.9487 40.2968 20.8575 40.2414 20.7804C40.1306 20.5201 40.1273 20.1466 40.2941 19.9125C40.618 19.4577 41.4415 19.3823 41.9513 19.2883C41.8868 18.8076 41.6479 18.5663 41.1082 18.7142C40.8675 18.7801 40.763 18.9628 40.6631 19.1791C40.5033 19.128 40.4113 19.1042 40.2466 19.0734C40.4319 18.5431 40.5638 18.4046 41.1121 18.2569ZM40.8539 20.7711C41.5886 20.9518 42.1196 20.4542 41.914 19.7416C41.8496 19.6928 41.875 19.7054 41.7802 19.7117C41.6413 19.7402 41.4403 19.7965 41.3083 19.8122C40.8315 19.8688 40.2145 20.3882 40.8539 20.7711Z" fill="black" fill-opacity="0.988235"/>
<path d="M34.0918 18.2573C34.1671 18.2481 34.2428 18.2433 34.3188 18.243C35.2425 18.2347 35.5364 18.9981 35.5406 19.796L33.4636 19.7948C33.4787 19.8865 33.4966 19.9776 33.5163 20.0684C33.6906 20.8319 34.5761 21.1499 35.0608 20.3436C35.0657 20.333 35.102 20.2885 35.1117 20.2762C35.2255 20.2773 35.4186 20.3628 35.5328 20.4069C35.5001 20.4723 35.4662 20.5372 35.4311 20.6013C35.0847 21.2277 34.1559 21.3709 33.6386 21.0156C32.5969 20.3002 32.8445 18.5967 34.0918 18.2573ZM33.4896 19.425C33.7539 19.3974 34.0261 19.4061 34.2922 19.4085C34.5471 19.4092 34.8123 19.4066 35.0663 19.4123C34.9797 19.1126 34.9355 18.9557 34.7096 18.7337C34.5262 18.689 34.3909 18.6579 34.1998 18.6759C33.7784 18.7711 33.615 19.0335 33.4896 19.425Z" fill="black" fill-opacity="0.988235"/>
<path d="M12.6541 18.256C13.3959 18.1718 13.9619 18.5081 14.0964 19.2824C14.1219 19.429 14.1104 19.6448 14.1092 19.7972L12.0699 19.7937C12.0832 19.8867 12.0963 19.98 12.1163 20.0715C12.3005 20.9135 13.1791 21.1068 13.6557 20.3563C13.6689 20.2982 13.6572 20.3193 13.7139 20.2786C13.8496 20.2861 13.9975 20.3615 14.1255 20.4159C13.949 20.7859 13.7942 21.0105 13.3841 21.1264C12.616 21.3493 11.8714 21.0353 11.6659 20.2201C11.4552 19.3844 11.7741 18.4893 12.6541 18.256ZM12.0894 19.4136C12.4114 19.4064 12.7335 19.4045 13.0556 19.4081L13.6733 19.4119C13.5126 18.9153 13.3744 18.6201 12.7686 18.6747C12.288 18.7822 12.2382 18.9901 12.0894 19.4136Z" fill="black" fill-opacity="0.988235"/>
<path d="M9.12476 17.233C9.26874 17.243 9.47088 17.2398 9.61955 17.2421C9.5907 17.9639 9.62231 18.899 9.62724 19.638C9.79608 19.4035 9.99358 19.2517 10.1783 19.0441C10.4096 18.7842 10.6204 18.5504 10.8643 18.3018C11.0618 18.2916 11.2897 18.2995 11.4898 18.3018C11.0945 18.6697 10.7806 19.0204 10.3606 19.3907C10.5812 19.7539 10.9159 20.2064 11.1642 20.5603C11.3122 20.7823 11.4156 20.9351 11.5865 21.1408C11.0851 21.1398 11.0149 21.2129 10.691 20.7521C10.4668 20.4332 10.2739 20.0708 10.0393 19.7656C9.88874 19.9165 9.76777 20.0383 9.63042 20.2034C9.60905 20.4804 9.61964 20.8579 9.60678 21.1561C9.44609 21.1557 9.28536 21.1572 9.1247 21.1607C9.10799 19.9036 9.09843 18.4875 9.12476 17.233Z" fill="black" fill-opacity="0.988235"/>
<path d="M55.1297 18.2536C56.3878 18.1328 56.2988 19.2826 56.2798 20.1613C56.2725 20.492 56.2789 20.8215 56.2619 21.1533C56.0978 21.1493 55.9334 21.1502 55.7694 21.156C55.7754 20.5227 55.8145 19.824 55.7451 19.2011C55.691 18.7155 55.259 18.6744 54.883 18.773C54.2521 19.2009 54.4755 20.419 54.4564 21.1543L53.9702 21.1428L53.9708 18.3018C54.137 18.2975 54.3178 18.3014 54.4849 18.3015L54.4579 18.6922C54.6859 18.4347 54.8061 18.3502 55.1297 18.2536Z" fill="black" fill-opacity="0.988235"/>
<path d="M17.969 18.6882C17.9863 18.6667 18.004 18.6454 18.0219 18.6243C18.498 18.0648 19.6691 18.1194 19.7106 18.8756C19.6451 19.3084 19.7211 20.7725 19.6161 20.9743C19.5362 20.9986 19.4547 20.9708 19.3728 20.9515C19.3282 20.8788 19.3512 20.8367 19.3169 20.7495C19.2722 20.3845 19.4197 19.0454 19.1413 18.8856C17.621 18.0126 17.982 20.5102 17.9548 21.1524C17.7947 21.1475 17.6665 21.1463 17.5066 21.1537L17.5042 18.3023L17.9749 18.2974L17.969 18.6882Z" fill="black" fill-opacity="0.988235"/>
<path d="M57.7312 18.258C58.1893 18.211 58.6313 18.2648 58.9398 18.6502C59.0239 18.7551 59.1556 18.9212 59.142 19.0612C59.0672 19.1456 58.8562 19.1956 58.7345 19.2379C58.6512 19.0603 58.5265 18.8197 58.3419 18.7467C57.7267 18.535 57.3453 18.8062 57.2015 19.4118C57.0104 20.2157 57.6156 21.2506 58.4829 20.6309C58.6173 20.4972 58.6743 20.3602 58.7396 20.1872L59.1913 20.3856C59.0209 20.7667 58.8604 21.0223 58.4342 21.1332C58.0724 21.2321 57.648 21.2195 57.3171 21.0244C56.6241 20.6137 56.5082 19.5357 56.8957 18.8803C57.1034 18.5295 57.3459 18.3584 57.7312 18.258Z" fill="black" fill-opacity="0.988235"/>
<path d="M25.5792 17.7126C25.7231 17.7046 25.8947 17.7072 26.0409 17.7056C26.0205 18.0799 26.0394 18.6714 26.0392 19.069C26.4223 19.0499 26.9577 19.0725 27.3517 19.0772L27.3425 19.5003C27.0494 19.5165 26.3252 19.5255 26.0478 19.4919C26.031 19.7961 26.0925 20.552 25.9947 20.843C25.9898 20.8577 25.9172 20.8572 25.8914 20.8591C25.7952 20.8566 25.6419 20.8683 25.5798 20.8168C25.5447 20.4972 25.5653 19.8557 25.5667 19.5126C25.1983 19.5077 24.6011 19.4822 24.2505 19.5125C24.2566 19.3714 24.2559 19.2184 24.2578 19.0762C24.6917 19.0687 25.1257 19.0674 25.5596 19.0722C25.5633 18.7958 25.5418 17.9324 25.5792 17.7126Z" fill="black" fill-opacity="0.984314"/>
<path d="M14.685 17.4362C14.8437 17.4346 15.0067 17.4374 15.1659 17.4381C15.1605 17.7148 15.1648 18.0062 15.1644 18.2842C15.361 18.2787 15.6313 18.297 15.8328 18.3047C15.8223 18.4413 15.8173 18.5889 15.8099 18.7268C15.5816 18.7323 15.3962 18.7335 15.1663 18.723C15.1626 19.2661 15.1344 19.9858 15.1857 20.5179C15.2218 20.8923 15.678 20.683 15.861 20.78C15.8988 20.8 15.8994 20.8729 15.9099 20.9299C15.8991 21.009 15.8996 21.0297 15.8554 21.0974C15.6369 21.26 14.8928 21.1304 14.812 20.9934C14.58 20.5998 14.6725 19.1584 14.6721 18.7331L14.2293 18.7268C14.2321 18.5877 14.2231 18.4409 14.2173 18.3014L14.6647 18.2903C14.6799 18.0065 14.6556 17.7242 14.685 17.4362Z" fill="black" fill-opacity="0.988235"/>
<path d="M48.9038 17.2377L49.404 17.2415L49.4079 19.8907C49.4085 20.1373 49.4254 20.9586 49.3788 21.1566C49.2193 21.1515 49.0594 21.1511 48.8999 21.1555L48.9038 17.2377Z" fill="black" fill-opacity="0.988235"/>
<path d="M8.41137 18.2795C8.50343 18.2726 8.59186 18.2539 8.66313 18.311C8.73091 18.4302 8.69688 18.6403 8.69149 18.7931L8.67448 18.7914C7.3964 18.672 7.76582 20.2892 7.72414 21.152C7.55451 21.1486 7.40351 21.1461 7.23413 21.1544L7.23695 18.2937L7.7397 18.2973C7.73682 18.4481 7.7406 18.6037 7.74254 18.755C7.96599 18.4574 8.0332 18.3591 8.41137 18.2795Z" fill="black" fill-opacity="0.988235"/>
<path d="M47.7515 17.242L48.1992 17.2449C48.1801 18.1438 48.2162 19.0786 48.2022 19.98C48.1983 20.239 48.2207 20.9344 48.1756 21.1532C48.0279 21.1471 47.9031 21.1505 47.7554 21.1558C47.7321 19.8703 47.7463 18.5307 47.7515 17.242Z" fill="black" fill-opacity="0.988235"/>
<path d="M39.1867 18.2969L39.6875 18.2999C39.6887 18.6463 39.7286 21.0034 39.6463 21.1583C39.4804 21.1508 39.349 21.1498 39.1831 21.1549C39.2094 20.2466 39.1904 19.2132 39.1867 18.2969Z" fill="black" fill-opacity="0.988235"/>
<path d="M50.0549 18.3028C50.2136 18.2975 50.3985 18.3025 50.5593 18.3028C50.5345 18.9277 50.5732 19.6071 50.5599 20.2363C50.5538 20.5165 50.5741 20.8824 50.5336 21.1534C50.3631 21.1477 50.2257 21.1455 50.0555 21.153C50.0831 20.279 50.0686 19.1842 50.0549 18.3028Z" fill="black" fill-opacity="0.988235"/>
<path d="M16.3135 18.3L16.8057 18.3019C16.7852 19.1427 16.8594 20.3595 16.7889 21.1584C16.6249 21.1505 16.4822 21.1499 16.318 21.1521C16.306 20.2075 16.3139 19.246 16.3135 18.3Z" fill="black" fill-opacity="0.988235"/>
<path d="M50.0416 17.2428L50.5826 17.2469L50.5766 17.7844L50.0347 17.7845L50.0416 17.2428Z" fill="black" fill-opacity="0.976471"/>
<path d="M39.1741 17.2386L39.7111 17.2486C39.6972 17.4138 39.7008 17.617 39.6996 17.7857L39.1653 17.7852L39.1741 17.2386Z" fill="black" fill-opacity="0.976471"/>
<path d="M19.7108 18.8756C19.7944 19.2755 19.7793 20.7005 19.7533 21.159C19.5833 21.1566 19.4301 21.185 19.3216 21.0781C19.2934 20.9713 19.309 20.8602 19.3171 20.7495C19.3513 20.8367 19.3283 20.8788 19.3729 20.9515C19.4549 20.9708 19.5363 20.9987 19.6162 20.9743C19.7212 20.7726 19.6452 19.3085 19.7108 18.8756Z" fill="black" fill-opacity="0.960784"/>
<path d="M16.2852 17.2458C16.4502 17.2465 16.5678 17.2422 16.7321 17.2276C16.6876 17.3673 16.7039 17.6361 16.7013 17.7981C16.597 17.7799 16.3994 17.7844 16.2855 17.7839L16.2852 17.2458Z" fill="black" fill-opacity="0.980392"/>
<path d="M16.7324 17.2276C16.8918 17.3127 16.8467 17.5776 16.8159 17.7366C16.763 17.7972 16.7908 17.779 16.7016 17.7981C16.7041 17.6361 16.6879 17.3673 16.7324 17.2276Z" fill="black" fill-opacity="0.960784"/>
<path d="M49.9345 0H53.9651H54.9768C55.2605 0.589374 55.4273 1.06858 55.681 1.63467L57.4601 5.61064C57.9109 6.64347 58.4343 7.69604 58.8918 8.7302L60.7953 12.9957C61.1247 13.7412 61.4235 14.4858 61.7686 15.2304C60.3216 15.265 58.7268 15.1908 57.3085 15.2541C56.963 14.2665 56.4644 13.2964 56.0933 12.3174L51.123 12.3128L49.698 12.3128C49.4713 12.3127 49.0671 12.3217 48.8525 12.2933C48.6587 12.8494 48.3587 13.4447 48.1365 13.9944C47.9697 14.4073 47.8405 14.826 47.6585 15.2315C47.2371 15.2486 46.7303 15.2301 46.3005 15.2328C45.2521 15.2393 44.1983 15.2205 43.1499 15.2338C43.41 14.5983 43.6833 14.0275 43.9597 13.4033L45.7465 9.42398C45.913 9.0602 46.0437 8.68 46.2054 8.3154L48.0167 4.2767C48.6597 2.83373 49.326 1.46239 49.9345 0ZM50.2566 8.9171C50.3507 8.94644 51.2771 8.92974 51.4315 8.93145C52.5113 8.9434 53.6157 8.90907 54.6931 8.93856C54.3859 8.15846 54.0289 7.40609 53.715 6.62693C53.3324 5.67784 52.9279 4.57097 52.469 3.66297C52.1033 4.48795 51.8429 5.18489 51.5057 5.99741C51.0964 6.97365 50.6798 7.94691 50.2566 8.9171Z" fill="black"/>
<path d="M49.9345 0H53.9651C53.7002 0.577345 53.4995 1.11766 53.2727 1.70868C53.0554 2.27537 52.6149 3.10482 52.469 3.66297C52.1033 4.48795 51.8429 5.18489 51.5057 5.99741C51.0964 6.97365 50.6798 7.94691 50.2566 8.9171C50.1879 9.09155 50.0786 9.28781 50.022 9.45512C49.7017 10.403 49.1767 11.363 48.8525 12.2933C48.6587 12.8494 48.3587 13.4447 48.1365 13.9944C47.9697 14.4073 47.8405 14.826 47.6585 15.2315C47.2371 15.2486 46.7303 15.2301 46.3005 15.2328C45.2521 15.2393 44.1983 15.2205 43.1499 15.2338C43.41 14.5983 43.6833 14.0275 43.9597 13.4033L45.7465 9.42398C45.913 9.0602 46.0437 8.68 46.2054 8.3154L48.0167 4.2767C48.6597 2.83373 49.326 1.46239 49.9345 0Z" fill="#FEA400"/>
<path d="M22.1142 0H27.9893C28.5631 1.11413 29.0191 2.29007 29.5259 3.43463C30.0861 4.69984 30.7218 5.93598 31.2222 7.2296C31.4408 7.7948 31.7765 8.35952 32.0036 8.92683C32.1613 9.26458 32.4138 9.89115 32.5972 10.1933C33.0359 11.2982 33.4721 12.2627 33.9738 13.3352C34.1085 13.6226 34.7569 14.9906 34.8002 15.1926L34.7672 15.2378C34.6797 15.2585 33.7861 15.2416 33.6383 15.2415L30.3428 15.2422C30.0592 14.4355 29.6629 13.6363 29.3403 12.8469L26.7639 6.56681C26.736 7.38994 26.7636 8.29186 26.7573 9.12238C26.742 11.1569 26.7791 13.2054 26.7493 15.2392L22.1111 15.2479C22.1355 14.7108 22.1157 14.0415 22.1157 13.4907L22.1156 10.1569L22.1142 0Z" fill="black"/>
<path d="M0 0H5.87522C6.26495 0.767317 6.41968 1.26872 6.74464 1.97596L9.64171 8.37448C9.84984 8.83466 10.0551 9.29611 10.2575 9.75884C10.3065 9.87129 10.3864 10.1203 10.4408 10.1935C10.8742 11.3828 11.5833 12.5919 12.0592 13.7754C12.2552 14.2626 12.448 14.7337 12.6678 15.2111C12.5912 15.2759 8.64477 15.2439 8.22731 15.2455C7.93568 14.4207 7.51494 13.5332 7.17337 12.7216L5.44409 8.55523C5.21002 7.99526 4.81995 7.17428 4.63234 6.62453C4.64751 7.37331 4.64639 8.13657 4.63812 8.88562C4.61487 11.0006 4.67073 13.1282 4.62931 15.2416L1.458 15.2429C1.11507 15.2431 0.300812 15.2714 0 15.2448V0Z" fill="black"/>
<path d="M41.1593 0H43.0423L43.0399 9.56866C43.0402 11.4486 43.0214 13.3816 43.0481 15.2584C42.7253 15.2361 42.406 15.2446 42.0829 15.2416C40.8675 15.2307 39.6484 15.2556 38.4335 15.2419C38.4638 14.7251 38.4435 14.0227 38.4432 13.4946L38.4411 10.2689C38.4417 9.36778 38.4495 8.4585 38.4353 7.55801C38.4326 7.39268 38.4265 6.82525 38.405 6.68166C38.6627 5.78041 39.3602 4.31836 39.7431 3.40839C40.2196 2.27663 40.6549 1.10984 41.1593 0Z" fill="black"/>
<path d="M19.0395 0H20.7983C20.7512 0.19142 20.7745 0.736437 20.7753 0.956812L20.7797 2.78245L20.7794 11.5063L20.7789 13.8304C20.7787 14.148 20.7958 14.864 20.7424 15.1397C20.2029 15.286 16.8556 15.0951 16.7525 15.2347C16.6129 15.2456 16.4203 15.2438 16.2763 15.2468C16.2951 14.6729 16.2787 14.0052 16.2786 13.4255L16.2779 9.93113C16.2821 9.16438 16.2815 8.39763 16.2762 7.63087C16.2722 7.38943 16.2736 6.90541 16.2429 6.67948C16.3551 6.34732 16.5187 6.00827 16.6567 5.68198C16.9403 5.00137 17.23 4.32335 17.5259 3.64804C17.5706 3.54325 17.6206 3.43277 17.6602 3.32628C18.0769 2.20677 18.5555 1.0908 19.0395 0Z" fill="black"/>
<path d="M15.0117 0H19.0394C18.5554 1.0908 18.0767 2.20677 17.6601 3.32628C17.6205 3.43277 17.5705 3.54325 17.5258 3.64804C17.2299 4.32335 16.9401 5.00137 16.6565 5.68198C16.5185 6.00826 16.3549 6.34732 16.2428 6.67947C16.0956 6.98767 15.9002 7.6104 15.7345 7.9993L13.5481 13.2277C13.3822 13.6175 12.8575 14.9033 12.6677 15.2111C12.4478 14.7337 12.255 14.2626 12.0591 13.7754C11.5832 12.5919 10.874 11.3828 10.4407 10.1935C10.5202 9.96194 10.7174 9.57207 10.821 9.33032C11.1533 8.55414 11.5415 7.79535 11.8796 7.02294L13.7948 2.73516C14.2027 1.81433 14.5564 0.908355 15.0117 0Z" fill="#FEA400"/>
<path d="M37.1285 0H41.1594C40.655 1.10984 40.2197 2.27663 39.7432 3.40839C39.3602 4.31836 38.6627 5.78041 38.4051 6.68166L35.8724 12.7304L35.0539 14.6402C34.9942 14.7805 34.8344 15.0784 34.8002 15.1926C34.7569 14.9906 34.1084 13.6226 33.9737 13.3352C33.4721 12.2627 33.0358 11.2982 32.5972 10.1933C32.7837 9.80108 32.9659 9.27008 33.1615 8.83819L36.3816 1.72007C36.6462 1.14097 36.8391 0.605397 37.1285 0Z" fill="#FEA400"/>
<path d="M0 17.2365C0.194282 17.2335 0.597569 17.2009 0.748969 17.3009C0.89713 17.5948 1.00693 18.0644 1.12666 18.3884C1.38244 19.0807 1.65047 19.7627 1.9019 20.4569C2.17312 19.7943 2.41811 19.0904 2.67672 18.4196C2.81433 18.0627 2.89938 17.6061 3.07269 17.2699C3.26123 17.2894 3.45029 17.3031 3.63965 17.311C3.71076 17.6583 3.73198 20.7642 3.64591 20.9933C3.57798 20.9896 3.34351 20.9824 3.30243 20.9547C3.30313 20.0327 3.33879 18.8288 3.29244 17.9259C2.99843 18.6982 2.74888 19.4541 2.46855 20.229C2.38763 20.4527 2.2072 20.9587 2.09809 21.1545C1.96104 21.1522 1.81318 21.1523 1.67732 21.1451C1.26911 20.2446 1.00673 19.211 0.644883 18.2886C0.593958 18.1588 0.553742 18.0351 0.489893 17.9101C0.513231 18.2026 0.51132 18.5232 0.505962 18.8175C0.491888 19.5905 0.524928 20.3803 0.495088 21.1511C0.347635 21.1551 0.141575 21.1668 0 21.151V17.2365Z" fill="black"/>
<path d="M61.9361 20.4178C61.7448 20.831 61.5356 21.0832 61.0664 21.165C60.2139 21.2777 59.6187 20.9469 59.4462 20.0531C59.2155 18.8579 60.285 17.7651 61.4297 18.4473C61.8132 18.6759 61.9349 19.2838 62 19.7147V19.7723C61.8235 19.8194 60.1876 19.7964 59.8927 19.795C60.0017 20.8455 61.0537 21.2466 61.5132 20.2539C61.6758 20.3075 61.7802 20.3476 61.9361 20.4178ZM59.9036 19.4122C60.2181 19.4072 60.5327 19.4058 60.8469 19.4081C61.044 19.4086 61.2744 19.4033 61.4684 19.4117C61.35 18.8783 61.1778 18.6297 60.5844 18.6799C60.1606 18.8018 60.0601 19.0235 59.9036 19.4122Z" fill="black" fill-opacity="0.988235"/>
<path d="M20.7983 0H20.9258L20.9235 10.2711C20.9235 11.9043 20.9483 13.6123 20.9208 15.2398L17.947 15.2446C17.7629 15.2447 16.8641 15.2555 16.7524 15.2347C16.8555 15.0951 20.2029 15.286 20.7424 15.1397C20.7958 14.864 20.7787 14.148 20.7789 13.8304L20.7793 11.5063L20.7797 2.78245L20.7752 0.956812C20.7745 0.736437 20.7512 0.19142 20.7983 0Z" fill="black" fill-opacity="0.980392"/>
<path d="M3.07275 17.2699C3.24782 17.2154 3.60148 17.2357 3.79341 17.2422C3.7965 18.4602 3.83619 19.9615 3.78436 21.1578C3.6382 21.1621 3.4294 21.1939 3.32081 21.1124C3.30371 21.0428 3.30008 21.029 3.3025 20.9546C3.34358 20.9824 3.57805 20.9895 3.64598 20.9933C3.73205 20.7642 3.71083 17.6582 3.63971 17.311C3.45035 17.303 3.2613 17.2893 3.07275 17.2699Z" fill="black" fill-opacity="0.968627"/>
</svg>
